<?xml version="1.0" standalone="no"?>
<svg xmlns:xlink="http://www.w3.org/1999/xlink" id="wave" style="transform:rotate(0deg); transition: 0.3s" viewBox="0 0 1440 240" version="1.1" xmlns="http://www.w3.org/2000/svg"><defs><linearGradient id="sw-gradient-0" x1="0" x2="0" y1="1" y2="0"><stop stop-color="rgba(142, 36, 170, 1)" offset="0%"/><stop stop-color="rgba(11, 181.428, 255, 1)" offset="100%"/></linearGradient></defs><path style="transform:translate(0, 0px); opacity:1" fill="url(#sw-gradient-0)" d="M0,120L60,136C120,152,240,184,360,172C480,160,600,104,720,100C840,96,960,144,1080,144C1200,144,1320,96,1440,96C1560,96,1680,144,1800,160C1920,176,2040,160,2160,148C2280,136,2400,128,2520,104C2640,80,2760,40,2880,32C3000,24,3120,48,3240,48C3360,48,3480,24,3600,28C3720,32,3840,64,3960,72C4080,80,4200,64,4320,72C4440,80,4560,112,4680,104C4800,96,4920,48,5040,32C5160,16,5280,32,5400,52C5520,72,5640,96,5760,108C5880,120,6000,120,6120,120C6240,120,6360,120,6480,112C6600,104,6720,88,6840,92C6960,96,7080,120,7200,112C7320,104,7440,64,7560,40C7680,16,7800,8,7920,4C8040,0,8160,0,8280,32C8400,64,8520,128,8580,160L8640,192L8640,240L8580,240C8520,240,8400,240,8280,240C8160,240,8040,240,7920,240C7800,240,7680,240,7560,240C7440,240,7320,240,7200,240C7080,240,6960,240,6840,240C6720,240,6600,240,6480,240C6360,240,6240,240,6120,240C6000,240,5880,240,5760,240C5640,240,5520,240,5400,240C5280,240,5160,240,5040,240C4920,240,4800,240,4680,240C4560,240,4440,240,4320,240C4200,240,4080,240,3960,240C3840,240,3720,240,3600,240C3480,240,3360,240,3240,240C3120,240,3000,240,2880,240C2760,240,2640,240,2520,240C2400,240,2280,240,2160,240C2040,240,1920,240,1800,240C1680,240,1560,240,1440,240C1320,240,1200,240,1080,240C960,240,840,240,720,240C600,240,480,240,360,240C240,240,120,240,60,240L0,240Z"/></svg>